<svg version="1.1" id="Layer_1" xmlns="http://www.w3.org/2000/svg" xmlns:xlink="http://www.w3.org/1999/xlink" x="0px" y="0px"
	 width="100%" viewBox="0 0 891 885" enable-background="new 0 0 891 885" xml:space="preserve">
<path fill="#A4824D" opacity="1.000000" stroke="none" 
	d="
M433.641479,1.222365 
	C441.354248,1.000000 448.708496,1.000000 456.531372,1.000000 
	C459.698853,2.050408 462.510040,1.245789 465.673950,1.500000 
	C468.573456,1.500000 471.056152,1.500000 473.942871,1.500000 
	C517.869507,1.022269 559.503235,10.595422 600.138672,25.306799 
	C634.916748,37.897621 667.562317,54.681755 698.234497,75.375908 
	C728.920776,96.079620 756.316162,120.472168 781.096802,147.918503 
	C809.203491,179.048859 832.249207,213.556168 850.446472,251.296921 
	C869.680664,291.188354 882.668518,333.056458 889.225403,376.864166 
	C890.564941,385.813873 890.619873,394.920746 890.925049,403.962616 
	C891.166077,411.104309 891.865173,418.243439 891.499939,425.827698 
	C891.499939,437.107941 891.499939,447.963928 891.499939,459.244812 
	C892.684448,516.959656 878.929138,570.991333 855.870300,622.991638 
	C837.426392,664.584656 813.060669,702.378540 782.804138,736.341675 
	C748.386169,774.976074 708.881714,807.279175 663.406250,832.199951 
	C621.720947,855.043579 577.591125,870.927368 530.937988,879.974060 
	C513.536621,883.348328 495.987762,884.629578 478.318390,885.039551 
	C471.170197,885.205383 464.028107,885.634460 456.457886,885.499939 
	C449.990265,885.499939 443.937592,885.499939 437.469757,885.499939 
	C402.240082,885.821289 367.817902,882.855591 334.073547,873.697327 
	C305.065948,865.824707 276.772278,855.957764 249.834579,842.628662 
	C212.646637,824.227661 178.377731,801.420044 147.437637,773.609802 
	C114.116600,743.659363 85.705421,709.697815 62.592335,671.360474 
	C32.030495,620.667725 12.493311,565.948120 3.826921,507.397095 
	C2.480119,498.298035 2.403292,489.034821 2.121170,479.840881 
	C1.845889,470.869873 1.160576,461.899567 1.500000,452.498199 
	C1.500000,446.355042 1.500000,440.625793 1.500000,434.485596 
	C0.556582,387.596313 7.758265,342.449127 23.547297,298.690918 
	C26.435511,290.686432 26.437550,290.378326 34.871906,290.580048 
	C42.390728,290.759918 49.830132,289.893433 57.304432,289.512299 
	C61.230549,289.312103 63.897121,290.766876 65.839783,294.236938 
	C78.370567,316.620148 91.072128,338.907227 103.700348,361.235565 
	C106.241554,365.728729 104.804474,368.014709 99.502533,368.369720 
	C95.179504,368.659149 90.838440,368.386261 86.509750,368.533203 
	C85.152679,368.579315 82.942780,368.121613 83.061432,370.213135 
	C83.155815,371.876740 85.245422,372.059326 86.728714,372.064728 
	C89.889244,372.076233 93.011124,371.435699 96.193253,371.496399 
	C110.691750,371.773041 108.486938,369.525116 116.317787,383.222839 
	C148.478180,439.477692 180.768173,495.656982 213.458679,551.605652 
	C213.795059,552.181396 214.118713,552.762939 214.433411,553.350342 
	C218.248459,560.471130 218.132446,561.321472 211.918365,566.906555 
	C199.619385,577.960754 191.774261,591.585815 188.311813,607.724487 
	C187.298767,612.446289 186.728378,617.261169 186.448502,622.074951 
	C186.227768,625.871033 184.401260,627.433411 180.765549,627.416504 
	C178.767807,627.407288 176.767609,627.493408 174.768356,627.465027 
	C166.983948,627.354492 165.658035,625.771423 166.778152,617.628052 
	C168.329910,606.346558 171.317017,595.466187 175.771637,584.962097 
	C176.760712,582.629761 179.893509,579.462158 176.423782,577.503967 
	C172.820297,575.470215 170.288345,578.808838 168.427658,581.635803 
	C158.742523,596.350769 152.611465,612.438416 150.552231,629.948486 
	C146.045731,668.268005 157.856140,701.173157 185.231812,727.952148 
	C203.967789,746.279724 226.934128,756.557190 253.256378,759.717102 
	C299.060760,765.216064 348.467285,741.444458 370.109528,696.596191 
	C391.413208,652.449402 386.179169,610.356384 356.298737,571.359802 
	C346.621674,558.730408 333.663635,550.131714 320.688446,541.516296 
	C315.321472,537.952637 315.255249,538.077393 318.561707,532.883850 
	C334.805328,507.369843 352.204865,482.622772 368.720215,457.289612 
	C405.662048,400.623962 441.705536,343.400330 475.283905,284.661285 
	C478.164276,279.622589 481.640533,277.715088 487.552673,277.313721 
	C504.145447,276.187256 520.709167,277.559937 537.271973,276.975067 
	C541.779663,276.815857 546.225952,277.696472 551.071533,277.500031 
	C551.688354,277.500031 551.956299,277.500092 552.224243,277.500061 
	C552.709595,277.499969 552.692749,277.499908 551.876831,277.500000 
	C533.815918,277.056519 516.045105,276.957001 498.282288,276.450043 
	C494.945343,276.354797 491.690582,275.570190 488.359314,275.328186 
	C483.356934,274.964783 482.339813,272.872528 484.801208,268.343292 
	C490.607452,257.659271 496.699463,247.134613 502.539703,236.467209 
	C514.382080,214.836823 525.832275,193.008301 536.742737,170.893204 
	C542.471863,159.280380 543.313171,159.134857 552.492188,168.525940 
	C580.838196,197.526810 606.709656,228.590042 629.942322,261.839569 
	C637.140564,272.141327 637.548035,272.135681 645.120850,262.230774 
	C649.167908,256.937408 653.298706,251.708206 657.386902,246.446396 
	C660.990417,241.808350 661.128235,239.490982 657.603882,234.797592 
	C645.996094,219.339355 633.499146,204.638977 620.485168,190.327332 
	C601.942505,169.935699 581.459656,151.675354 560.431091,133.976181 
	C556.918518,131.019775 557.671753,127.826981 559.089417,124.531326 
	C562.093750,117.547081 565.856812,110.921097 569.079041,104.034256 
	C569.528442,103.073639 570.134827,102.156967 570.552124,101.158379 
	C570.814209,100.544556 571.177185,101.564423 570.639221,101.170654 
	C570.557495,101.110817 570.462646,101.219940 570.332397,101.487152 
	C566.558044,109.232353 562.991821,117.088867 558.168579,124.274033 
	C555.388062,128.416153 553.794617,128.735809 549.746338,125.585938 
	C538.299805,116.679596 526.465393,108.328926 514.387329,100.301544 
	C466.033112,68.164070 413.732819,45.048508 357.251282,31.517965 
	C345.266235,28.646866 333.153564,26.331448 320.960052,24.486782 
	C319.807587,24.312429 318.632141,24.266268 317.552765,23.768076 
	C316.278961,23.180170 315.270386,22.334042 315.165924,20.827919 
	C315.042450,19.047770 316.146912,18.113888 317.632019,17.479767 
	C323.024841,15.177067 328.763519,13.996420 334.397888,12.561331 
	C358.256104,6.484605 382.349731,1.956432 407.116730,1.921113 
	C411.084808,1.915454 415.074524,1.451000 419.466675,1.500000 
	C424.338654,1.466486 428.811249,1.569086 433.641479,1.222365 
z"/>
<path fill="#FEFEFD" opacity="1.000000" stroke="none" 
	d="
M552.288208,277.688538 
	C529.778015,278.546173 507.629242,279.287903 485.475281,279.804321 
	C482.255981,279.879333 480.448517,280.824860 478.807983,283.673828 
	C429.501617,369.300995 376.160675,452.375458 320.165100,533.759766 
	C317.921143,537.021118 318.091217,538.237061 321.757599,540.180542 
	C366.832550,564.073303 391.157990,612.156250 383.868439,662.480164 
	C376.850220,710.931152 338.826813,750.581726 289.682617,760.696594 
	C213.764008,776.322205 143.047775,715.532837 147.181717,638.065552 
	C148.295578,617.192627 154.872604,598.030029 166.025009,580.304871 
	C169.023163,575.539795 172.252014,572.918823 177.980103,573.878418 
	C179.752716,574.175293 181.617065,573.924500 183.476105,573.924500 
	C183.781815,576.203003 182.312866,577.551819 181.495026,579.092651 
	C174.614975,592.054565 170.640259,605.860413 168.991226,620.416321 
	C168.570679,624.128540 169.535400,625.313843 173.424591,625.253601 
	C183.431213,625.098450 183.567596,625.307678 184.578491,615.609192 
	C186.813660,594.165039 196.276352,576.605103 212.790192,562.870300 
	C215.092392,560.955505 215.260757,559.625854 213.808868,557.114990 
	C179.139130,497.159882 144.535355,437.166565 109.994583,377.137024 
	C108.624527,374.755951 107.027779,373.950531 104.395721,374.091888 
	C99.906517,374.332977 95.401123,374.263306 90.903030,374.350128 
	C81.348801,374.534454 81.348930,374.541321 74.846863,366.068115 
	C84.395622,366.068115 93.496353,366.068115 102.618073,366.068115 
	C102.735306,363.614899 101.484779,362.361511 100.700157,360.972198 
	C88.502304,339.373566 76.171524,317.849243 64.111382,296.174286 
	C62.284866,292.891632 60.295116,291.855652 56.679749,292.084595 
	C48.369141,292.610901 40.032303,292.862244 31.704554,292.902405 
	C28.821449,292.916290 27.716528,294.019440 26.812155,296.573914 
	C16.215559,326.504578 9.061539,357.243225 5.119376,388.725952 
	C3.318193,403.110443 2.225996,417.563843 1.862383,432.525452 
	C1.664559,433.224213 1.537674,433.465118 1.205395,433.353027 
	C1.000000,290.406769 1.018393,147.813522 0.897217,5.220398 
	C0.894090,1.540173 1.745709,0.906253 5.275384,0.909002 
	C142.871094,1.016184 280.466888,1.000000 418.531342,1.000000 
	C419.217072,1.164748 419.434174,1.329496 419.284973,1.675744 
	C384.060211,3.970030 349.922302,10.013928 316.506592,21.174477 
	C322.978058,22.290226 329.462219,23.337254 335.919037,24.532192 
	C413.589478,38.906380 482.827026,71.947968 545.626709,119.259262 
	C548.517029,121.436775 551.552979,125.865112 554.376587,125.013344 
	C556.992126,124.224350 558.392761,119.299522 560.258362,116.154366 
	C564.903625,108.323082 569.509033,100.468132 574.401062,92.163292 
	C575.589722,94.839775 574.166809,96.302856 573.517090,97.812035 
	C569.503479,107.136070 565.536011,116.487595 561.179810,125.652504 
	C559.567993,129.043640 560.235291,130.787674 563.034119,133.086853 
	C599.890808,163.364380 632.993225,197.248886 661.421753,235.643692 
	C664.306885,239.540390 664.373413,241.983475 661.220215,245.729309 
	C654.036011,254.263611 647.405334,263.263611 640.540771,272.067444 
	C637.110107,276.467194 637.103149,276.458954 633.748169,271.587372 
	C608.170410,234.446747 579.961609,199.476669 547.975159,167.623352 
	C547.266602,166.917740 546.506409,166.256149 545.859192,165.498184 
	C544.140015,163.484924 543.123962,163.905319 542.000183,166.192261 
	C524.518921,201.766235 505.632690,236.593445 486.125031,271.089294 
	C485.900574,271.486237 485.913116,272.017181 485.731323,272.885651 
	C507.617615,274.276703 529.337708,275.657196 551.493286,277.080261 
	C552.168457,277.248627 552.408203,277.374390 552.288208,277.688538 
z"/>
<path fill="#FFFFFF" opacity="1.000000" stroke="none" 
	d="
M1.604295,452.657471 
	C3.015869,494.178833 9.319132,534.499268 21.586481,573.859131 
	C67.898750,722.452515 190.657242,837.009094 342.122467,872.942871 
	C372.685944,880.193848 403.661713,884.242859 435.521545,885.135010 
	C436.222321,885.331970 436.462585,885.459167 436.351440,885.793213 
	C292.405731,886.000000 148.811478,885.981567 5.217319,886.103394 
	C1.528452,886.106567 0.907136,885.242676 0.909747,881.721436 
	C1.015472,739.126770 1.000000,596.532043 1.000000,453.468658 
	C1.137853,452.765686 1.275705,452.531372 1.604295,452.657471 
z"/>
<path fill="#FFFFFF" opacity="1.000000" stroke="none" 
	d="
M456.656891,885.396973 
	C499.003265,883.961243 540.149170,877.546387 580.253052,864.931519 
	C726.837891,818.822510 838.238708,702.182312 877.467773,553.658264 
	C885.399902,523.626526 889.858215,493.036224 891.096436,461.529724 
	C891.252563,460.832153 891.378723,460.590271 891.752441,460.674194 
	C892.000000,601.261963 891.980896,741.523865 892.104004,881.785767 
	C892.107239,885.482910 891.231323,886.092102 887.718445,886.089539 
	C744.458130,885.984741 601.197693,886.000000 457.468658,886.000000 
	C456.765350,885.862427 456.530670,885.724854 456.656891,885.396973 
z"/>
<path fill="#FFFFFF" opacity="1.000000" stroke="none" 
	d="
M891.314819,425.288696 
	C885.471436,269.644073 794.257141,125.405922 656.170715,52.945557 
	C604.542908,25.854033 549.835083,9.245098 491.889740,3.186838 
	C486.592010,2.632957 481.264252,2.366229 475.504089,1.933911 
	C474.820892,1.765927 474.584106,1.630189 474.673676,1.247226 
	C612.595032,1.000000 750.190063,1.019334 887.784973,0.896034 
	C891.480042,0.892723 892.092407,1.765736 892.089783,5.280741 
	C891.984314,144.874664 892.000000,284.468689 892.000000,424.531342 
	C891.834778,425.217163 891.669495,425.434326 891.314819,425.288696 
z"/>
<path fill="#DBCDB9" opacity="1.000000" stroke="none" 
	d="
M891.033875,425.391632 
	C891.125305,424.925903 891.565735,424.926331 891.782837,424.963165 
	C892.000000,436.687561 892.000000,448.375122 892.000000,460.531342 
	C892.000000,461.000000 891.566406,461.075226 891.346375,461.074615 
	C891.065063,449.335114 891.003784,437.596252 891.033875,425.391632 
z"/>
<path fill="#F8F6F2" opacity="1.000000" stroke="none" 
	d="
M456.552460,885.138184 
	C457.017761,885.206604 457.015198,885.603394 457.007599,885.801697 
	C450.312347,886.000000 443.624725,886.000000 436.468536,886.000000 
	C436.000000,886.000000 435.984985,885.602539 435.983521,885.403687 
	C442.683777,885.159790 449.385468,885.114807 456.552460,885.138184 
z"/>
<path fill="#F8F6F2" opacity="1.000000" stroke="none" 
	d="
M1.863321,452.552734 
	C1.795033,453.017914 1.396902,453.036224 1.198451,453.018127 
	C1.000000,446.645599 1.000000,440.291199 1.000000,433.468384 
	C1.000000,433.000000 1.395194,432.966614 1.593318,432.974976 
	C1.838165,439.351379 1.884887,445.719452 1.863321,452.552734 
z"/>
<path fill="#DBCDB9" opacity="1.000000" stroke="none" 
	d="
M419.381958,1.938020 
	C418.918701,1.857244 418.977386,1.430331 418.988708,1.215166 
	C423.689240,1.000000 428.378510,1.000000 433.533875,1.000001 
	C429.281738,1.339600 424.563507,1.679198 419.381958,1.938020 
z"/>
<path fill="#DBCDB9" opacity="1.000000" stroke="none" 
	d="
M474.550629,1.000000 
	C475.000000,1.000000 474.970367,1.454576 475.014038,1.678120 
	C472.333679,1.908830 469.609650,1.915996 466.434998,1.964388 
	C465.773132,1.834690 465.561920,1.663765 465.675354,1.246420 
	C468.700409,1.000000 471.400848,1.000000 474.550629,1.000000 
z"/>
<path fill="#A5844F" opacity="1.000000" stroke="none" 
	d="
M465.550018,1.000000 
	C465.963470,1.167074 465.926971,1.334147 465.937408,1.753418 
	C463.220276,1.889141 460.406403,2.395864 457.358459,1.172512 
	C459.700012,1.000000 462.400024,1.000000 465.550018,1.000000 
z"/>
<path fill="#FDFCFB" opacity="1.000000" stroke="none" 
	d="
M586.918213,396.631897 
	C585.028870,389.013550 582.519470,386.797272 575.265564,386.028961 
	C573.776733,385.871246 572.270874,385.874084 570.773132,385.799164 
	C569.736328,385.747314 568.472717,385.487610 568.377747,384.454437 
	C568.231201,382.859833 569.766052,382.906311 570.888184,382.738403 
	C571.379272,382.664856 571.885986,382.678131 572.385498,382.680634 
	C593.215271,382.785248 614.045532,382.842499 634.874451,383.037323 
	C639.881836,383.084137 644.811584,384.086487 649.631836,385.442627 
	C673.301453,392.101990 684.852234,412.669342 678.447205,436.603455 
	C674.743896,450.441742 666.528198,461.420868 656.373352,471.069061 
	C653.667419,473.639923 653.392212,475.243805 655.822510,478.249817 
	C670.066223,495.868195 683.562622,514.098389 698.965698,530.762756 
	C706.320740,538.720032 714.609009,545.230896 725.578430,547.485596 
	C732.444153,548.896851 735.579346,547.040405 737.304077,540.223267 
	C738.452698,535.683167 738.882996,531.023560 738.943237,526.357971 
	C739.477417,485.030182 739.415039,443.701416 739.030334,402.372803 
	C739.011780,400.377380 738.965759,398.357635 738.652344,396.393921 
	C737.501282,389.181488 734.785828,386.757141 727.506226,385.916046 
	C725.907471,385.731323 723.095764,386.701324 723.173950,384.084656 
	C723.235596,382.022034 725.847412,382.718689 727.366699,382.712128 
	C741.532104,382.650940 755.698059,382.648712 769.863464,382.719666 
	C771.341858,382.727051 773.825623,382.003998 773.837708,384.379669 
	C773.846924,386.215088 771.533447,385.755951 770.135315,385.940399 
	C761.657776,387.058716 759.295959,389.416443 758.887390,398.213684 
	C757.409790,430.025787 758.321594,461.860992 758.197937,493.685669 
	C758.150024,506.011169 758.663086,518.340027 759.008240,530.664917 
	C759.077820,533.150757 759.428528,535.645020 759.847473,538.101685 
	C761.025635,545.011230 763.287903,547.089539 770.363281,547.851135 
	C772.680969,548.100647 775.019592,548.150696 777.342346,548.361084 
	C778.308655,548.448730 779.557983,548.554260 779.674316,549.740295 
	C779.802673,551.049011 778.486511,551.125854 777.562195,551.350220 
	C776.923462,551.505310 776.239258,551.520203 775.575562,551.518494 
	C753.745728,551.461670 731.915833,551.319763 710.086182,551.359558 
	C697.676086,551.382141 688.022278,546.029419 680.077942,536.885071 
	C671.105957,526.557922 663.089722,515.490051 654.875000,504.576843 
	C649.665344,497.655853 644.515564,490.686432 639.502686,483.622528 
	C637.693787,481.073608 635.650513,479.891907 632.445129,479.936096 
	C624.782776,480.041779 617.113281,479.888550 609.451782,479.665771 
	C606.646240,479.584167 605.587463,480.588928 605.628235,483.395447 
	C605.879944,500.715302 605.064331,518.063293 606.818359,535.342224 
	C607.828064,545.288696 610.091064,547.240417 619.873352,548.093140 
	C622.246704,548.300049 626.572205,546.981995 626.482544,550.038086 
	C626.408386,552.564697 621.977356,551.466980 619.483276,551.486694 
	C605.651733,551.595703 591.818909,551.545532 577.986511,551.529236 
	C576.491882,551.527527 574.990417,551.456665 573.505554,551.294556 
	C572.693542,551.205994 571.761597,550.925537 571.820557,549.842041 
	C571.875977,548.823059 572.792175,548.619446 573.593872,548.427307 
	C574.076782,548.311523 574.586182,548.311096 575.079834,548.234314 
	C583.688843,546.896118 585.022461,545.744873 586.089905,536.970703 
	C588.107605,520.385315 587.551453,503.695587 587.577515,487.045380 
	C587.624390,457.052185 588.093811,427.053375 586.918213,396.631897 
z"/>
<path fill="#FDFDFC" opacity="1.000000" stroke="none" 
	d="
M486.914185,512.996033 
	C486.929047,521.160034 487.148926,528.815125 488.022522,536.438416 
	C488.883636,543.952698 491.001404,546.293823 498.460236,547.524109 
	C501.407288,548.010254 504.455994,547.893494 507.394867,548.411621 
	C509.291046,548.745972 512.721619,547.569824 512.620300,550.487610 
	C512.544250,552.678101 509.313354,551.813293 507.429626,551.874573 
	C504.435486,551.971924 501.427826,551.992126 498.437988,551.826721 
	C482.953979,550.969910 467.474884,551.432495 451.993683,551.867004 
	C449.497009,551.937134 446.995270,551.962585 444.499756,551.884216 
	C443.100159,551.840332 440.962341,552.212524 440.941437,550.238831 
	C440.919281,548.144592 443.147003,548.712585 444.500183,548.572510 
	C448.638580,548.143982 452.824524,548.076111 456.931458,547.462585 
	C466.859497,545.979370 468.817810,543.771545 469.018799,533.865906 
	C469.336395,518.214783 469.642670,502.561462 469.720001,486.907928 
	C469.836029,463.423340 469.752014,439.937775 469.744293,416.452606 
	C469.743774,414.954681 469.758026,413.447784 469.610504,411.960449 
	C469.126709,407.082611 467.388092,405.852295 462.608185,407.383667 
	C459.291992,408.446136 456.079498,409.865936 452.890839,411.283875 
	C449.396179,412.837921 446.039520,414.712067 442.508667,416.170654 
	C440.760529,416.892822 438.505096,419.644196 436.978699,416.883301 
	C435.576599,414.347198 438.790741,413.415649 440.424927,412.319580 
	C453.834961,403.325531 467.290894,394.399414 480.782990,385.528809 
	C482.491302,384.405640 484.262268,382.270996 486.538879,383.611298 
	C488.725464,384.898560 488.084198,387.484344 488.022461,389.590393 
	C486.821442,430.552063 486.839874,471.524323 486.914185,512.996033 
z"/>
<path fill="#F8F6F2" opacity="1.000000" stroke="none" 
	d="
M469.509033,570.562500 
	C476.842377,569.752075 483.523071,571.519897 490.294586,572.195435 
	C492.036377,572.369263 493.060669,573.089050 492.875183,575.057312 
	C492.596710,578.012268 492.422699,580.977173 491.809967,584.171814 
	C490.482544,578.973450 487.101715,576.166687 482.269196,574.764038 
	C477.570801,573.400269 472.807953,572.793457 467.960938,573.330994 
	C457.437195,574.498108 451.340271,579.720337 448.860718,589.499268 
	C443.437531,610.887268 459.589783,629.422241 480.660278,626.080139 
	C484.335724,625.497070 486.398346,624.090088 486.089172,619.953247 
	C485.804504,616.144287 485.903015,612.292908 486.055298,608.469116 
	C486.198730,604.866638 485.707703,601.809753 481.565765,600.523682 
	C486.442017,600.523682 491.318268,600.523682 497.139130,600.523682 
	C492.755188,602.176147 492.661194,605.372742 492.654938,608.624023 
	C492.646912,612.786621 492.362823,616.966187 492.650116,621.107056 
	C492.937592,625.250916 491.067810,627.061462 487.295563,628.109802 
	C478.352661,630.595337 469.502899,630.471558 460.747375,627.580688 
	C447.711975,623.276733 439.857391,610.969910 441.232086,597.343628 
	C442.731812,582.477966 452.167511,572.629211 466.582977,570.885986 
	C467.409546,570.785950 468.238312,570.704041 469.509033,570.562500 
z"/>
<path fill="#F8F6F2" opacity="1.000000" stroke="none" 
	d="
M649.170654,587.224854 
	C649.358765,584.333923 648.662659,581.778015 650.500061,578.711365 
	C663.448914,592.141541 676.106995,605.270142 689.712036,619.380798 
	C689.712036,615.583557 689.765808,612.911438 689.701843,610.242126 
	C689.518188,602.583557 689.188538,594.927002 689.118286,587.267761 
	C689.085999,583.751465 688.567017,580.909302 684.306152,580.277100 
	C688.328308,580.277100 692.350464,580.277100 696.935059,580.277100 
	C693.393127,581.972900 693.270630,584.873962 693.281494,587.931580 
	C693.329346,601.414062 693.302185,614.896912 692.626526,628.837036 
	C678.694702,617.262390 666.553406,604.023621 654.195557,591.216248 
	C652.483643,591.622681 652.938843,592.825195 652.957458,593.695740 
	C653.153137,602.852173 653.430542,612.006836 653.625000,621.163269 
	C653.696594,624.533325 654.213318,627.511963 658.266357,628.509338 
	C654.096436,628.509338 649.926514,628.509338 645.756531,628.509338 
	C649.467102,627.266907 649.164490,624.152588 649.164062,621.168457 
	C649.162476,610.009399 649.167847,598.850403 649.170654,587.224854 
z"/>
<path fill="#FAF8F5" opacity="1.000000" stroke="none" 
	d="
M514.193359,586.176147 
	C523.814026,577.940430 534.322876,577.225769 545.295227,581.612732 
	C555.411682,585.657532 560.267273,594.916748 559.098267,606.712708 
	C558.029297,617.498779 549.804565,626.589478 539.050964,628.870728 
	C522.407898,632.401367 508.597931,623.358948 506.438965,607.261169 
	C505.350677,599.146667 508.333008,592.254395 514.193359,586.176147 
z"/>
<path fill="#F8F6F2" opacity="1.000000" stroke="none" 
	d="
M617.713684,610.885742 
	C616.757019,610.885376 616.258301,610.885315 615.759583,610.885315 
	C605.559631,610.885193 602.632141,613.550476 601.043396,623.927124 
	C600.754456,625.814514 601.569458,627.018494 602.844299,628.540894 
	C598.831726,628.540894 595.139587,628.540894 591.447388,628.540894 
	C595.735718,626.831299 597.026428,622.930359 598.502380,619.118530 
	C603.057617,607.354431 607.631592,595.597290 612.292419,583.874939 
	C612.927429,582.277954 613.062317,580.288574 614.930420,579.230286 
	C616.796509,580.441406 617.041077,582.560608 617.770996,584.306519 
	C622.636597,595.945740 627.346985,607.649780 632.210327,619.289917 
	C633.741333,622.954407 635.129761,626.880432 639.726074,628.640320 
	C636.571167,628.640320 633.415955,628.666992 630.261536,628.627686 
	C628.924072,628.611084 628.585388,627.897888 628.176880,626.524902 
	C626.951233,622.405151 625.059937,618.486633 623.764221,614.383484 
	C622.825806,611.411682 621.002991,610.505066 617.713684,610.885742 
z"/>
<path fill="#F8F6F2" opacity="1.000000" stroke="none" 
	d="
M738.972168,615.899780 
	C743.876404,603.397217 748.666992,591.263367 753.637329,578.674377 
	C755.875793,580.426880 756.239685,582.440186 756.960876,584.170959 
	C761.940979,596.122314 766.836121,608.109009 771.804993,620.065125 
	C773.292175,623.643494 774.846069,627.236816 779.348511,628.628601 
	C776.040405,628.628601 772.731995,628.655518 769.424316,628.616211 
	C767.980469,628.599060 767.899109,627.641113 767.501587,626.384644 
	C766.152832,622.121399 764.281128,618.026917 762.758362,613.814087 
	C761.968933,611.630249 760.705383,610.538574 758.333008,610.875183 
	C757.681396,610.967651 757.005127,610.887390 756.340210,610.885254 
	C744.493591,610.846741 744.514221,610.853394 740.874695,622.174866 
	C740.152954,624.419983 739.179749,626.595215 742.599060,628.536865 
	C737.854797,628.536865 734.164429,628.536865 730.474060,628.536865 
	C736.329407,626.425903 736.734497,620.749451 738.972168,615.899780 
z"/>
<path fill="#FAF8F5" opacity="1.000000" stroke="none" 
	d="
M531.156372,403.673035 
	C538.190613,407.208099 541.237305,412.851959 540.717712,420.094360 
	C540.160461,427.862976 536.069214,433.428528 528.651428,436.284119 
	C513.346008,442.176147 498.736206,432.008850 500.892029,416.977234 
	C502.483917,405.877808 514.258911,399.210663 527.059998,402.200104 
	C528.343506,402.499847 529.566589,403.058838 531.156372,403.673035 
z"/>
<path fill="#F8F6F2" opacity="1.000000" stroke="none" 
	d="
M570.580261,581.064453 
	C574.335083,578.977417 578.580383,580.641052 583.023438,580.295776 
	C579.929077,581.453796 579.669373,583.803162 579.682922,586.400085 
	C579.743713,598.024963 579.705688,609.650330 579.785767,621.274963 
	C579.807678,624.459106 579.426758,628.095886 584.328369,628.477661 
	C579.690735,628.477661 575.053162,628.477661 569.215332,628.477661 
	C573.116882,626.914612 573.100159,624.256165 573.108521,621.601257 
	C573.145203,609.976318 573.219116,598.351379 573.195862,586.726562 
	C573.191711,584.653259 573.571960,582.251526 570.580261,581.064453 
z"/>
<path fill="#F8F6F2" opacity="1.000000" stroke="none" 
	d="
M712.196289,623.440552 
	C713.049622,610.857056 712.720032,598.697937 712.556824,586.541870 
	C712.523010,584.022705 712.293274,581.481445 709.270447,580.267944 
	C713.458252,580.267944 717.646057,580.267944 723.414246,580.267944 
	C718.848938,581.593445 718.856079,584.207764 718.870300,586.930298 
	C718.928589,598.090820 718.883240,609.251892 718.947449,620.412354 
	C718.967163,623.837708 718.221375,627.821411 723.431335,628.591919 
	C718.849548,628.591919 714.267700,628.591919 709.334595,628.591919 
	C710.223694,626.893127 712.743713,626.193787 712.196289,623.440552 
z"/>
<path fill="#F8F6F2" opacity="1.000000" stroke="none" 
	d="
M612.708130,570.279419 
	C610.269897,571.962097 608.168518,573.469177 606.067139,574.976318 
	C605.805847,574.680908 605.544495,574.385498 605.283142,574.090088 
	C608.079163,571.518738 610.881714,568.954346 613.668274,566.372803 
	C614.886719,565.243958 615.955566,565.514526 617.161499,566.480591 
	C619.100647,568.034119 621.144348,569.457031 623.137573,570.943481 
	C624.217285,571.748657 625.414429,572.452820 623.913879,574.014893 
	C622.608093,575.374390 621.755249,574.651001 620.555237,573.820679 
	C618.251160,572.226379 616.744568,568.895264 612.708130,570.279419 
z"/>
<path fill="#DBCDB9" opacity="1.000000" stroke="none" 
	d="
M552.278564,277.955994 
	C551.928406,277.876892 551.965271,277.499878 551.946960,277.311340 
	C553.401428,277.122833 554.874207,277.122833 556.346985,277.122833 
	C556.368896,277.318817 556.390747,277.514801 556.412598,277.710785 
	C555.151306,277.818909 553.890015,277.927002 552.278564,277.955994 
z"/>
<path fill="#DBCDB9" opacity="1.000000" stroke="none" 
	d="
M575.344116,91.209702 
	C575.489014,90.370193 575.889771,89.191879 576.371277,89.157944 
	C577.161560,89.102242 576.957153,90.015831 576.458557,90.821327 
	C576.020081,91.142242 575.828186,91.263588 575.344116,91.209702 
z"/>
<path fill="#FEFEFD" opacity="1.000000" stroke="none" 
	d="
M575.031677,91.374535 
	C575.245361,91.033546 575.438721,91.032600 575.922058,91.026276 
	C575.905701,91.414658 576.051758,92.591385 575.031677,91.374535 
z"/>
<path fill="#DBCDB9" opacity="1.000000" stroke="none" 
	d="
M577.363037,87.637436 
	C577.338562,87.422737 577.427124,87.344582 577.515686,87.266418 
	C577.590942,87.357391 577.730225,87.453461 577.723450,87.537910 
	C577.716736,87.622643 577.564514,87.695778 577.363037,87.637436 
z"/>
<path fill="#A4824E" opacity="1.000000" stroke="none" 
	d="
M363.893250,50.057556 
	C428.446259,71.913612 483.991150,107.752701 533.431580,153.609070 
	C535.792542,155.798904 536.393921,157.389847 534.524475,160.254044 
	C531.161743,165.405899 527.799744,170.639542 525.233887,176.206100 
	C522.900635,181.268097 519.581848,182.336380 514.317505,182.272827 
	C443.348145,181.416275 372.375916,180.794479 301.404327,180.122360 
	C294.240234,180.054520 287.065308,179.791031 279.915344,180.092041 
	C275.787476,180.265839 274.525848,179.177124 274.786987,174.891342 
	C276.083710,153.609329 277.008636,132.305038 278.174011,111.014587 
	C279.494171,86.896744 280.835724,62.779224 282.371460,38.674530 
	C282.859253,31.018656 281.848663,31.643482 289.737701,32.719219 
	C314.877045,36.147186 339.450165,41.940838 363.893250,50.057556 
z"/>
<path fill="#A4834E" opacity="1.000000" stroke="none" 
	d="
M495.927551,189.677704 
	C503.037018,189.655731 509.657684,189.655731 516.380127,189.655731 
	C516.695129,191.690994 515.200745,193.006378 514.328613,194.500412 
	C500.066711,218.932602 485.675354,243.289917 471.558472,267.805328 
	C469.582306,271.237213 467.455505,272.230164 463.673889,272.039917 
	C400.628540,268.868744 337.537872,267.049713 274.423340,266.040741 
	C271.606537,265.995667 270.286713,265.605408 270.479950,262.209961 
	C271.700287,240.763321 272.799286,219.307693 273.642517,197.843414 
	C273.804565,193.718353 275.046783,192.659546 279.113647,192.610321 
	C351.223206,191.737656 423.330750,190.700958 495.927551,189.677704 
z"/>
<path fill="#A4834E" opacity="1.000000" stroke="none" 
	d="
M411.121460,369.572510 
	C386.829468,412.053284 362.212067,454.169006 337.584503,496.278748 
	C330.860229,507.776306 323.996887,519.194336 317.423248,530.777100 
	C315.103851,534.863831 312.755676,536.547363 308.070099,534.086487 
	C304.880402,532.411255 301.153595,531.758606 297.275696,530.513428 
	C296.386108,530.693054 295.925659,531.014465 296.896637,531.675781 
	C301.217865,533.615417 305.297943,535.488770 309.439331,537.215088 
	C312.168518,538.352722 312.247559,539.847229 310.758453,542.174072 
	C308.068665,546.377136 306.548157,552.397888 302.771759,554.532593 
	C299.063385,556.628906 294.442932,551.484558 290.021179,549.985474 
	C281.914886,547.237061 273.670715,545.310425 265.128754,545.162476 
	C261.772095,545.104309 260.973328,544.010376 261.059509,540.823425 
	C261.933167,508.515503 262.583466,476.201447 263.481659,443.894287 
	C264.097382,421.746948 265.111420,399.610504 265.688904,377.462433 
	C265.796448,373.337280 266.586365,371.860413 271.179901,371.838104 
	C302.499786,371.685822 333.817871,371.166107 365.491272,370.736755 
	C367.100128,369.758087 368.541199,369.528503 370.075562,369.510712 
	C382.030090,369.372070 394.002777,369.963776 405.927582,368.544952 
	C407.541718,368.352875 409.264771,368.305450 411.121460,369.572510 
z"/>
<path fill="#A5834E" opacity="1.000000" stroke="none" 
	d="
M330.990356,659.844299 
	C335.088593,653.123352 337.636139,646.085266 338.939056,638.684631 
	C339.567291,635.116150 341.076111,634.047913 344.557556,634.240234 
	C349.704132,634.524536 354.881012,634.422119 360.038940,634.274475 
	C362.870728,634.193481 363.804016,635.158264 363.632355,638.051208 
	C360.664337,688.071167 325.660309,727.834229 281.166412,735.557251 
	C245.327454,741.777893 207.363785,724.680969 186.111572,691.737976 
	C175.896118,675.903076 170.262436,658.532349 168.841095,639.730103 
	C168.541779,635.770691 169.297867,634.205017 173.750580,634.217773 
	C225.705368,634.367004 277.660889,634.364502 329.615723,634.221375 
	C334.036316,634.209229 334.949677,635.696716 334.526764,639.729858 
	C333.863495,646.055847 332.741425,652.235474 330.445435,658.601868 
	C330.340240,659.381775 330.518005,659.742249 330.990356,659.844299 
z"/>
<path fill="#A4834E" opacity="1.000000" stroke="none" 
	d="
M366.351562,369.374176 
	C334.625366,368.748962 303.325653,368.270508 272.024323,368.109680 
	C267.372375,368.085785 265.801880,367.262207 266.075745,362.176056 
	C267.346680,338.570953 268.244537,314.944153 269.062164,291.317719 
	C269.196533,287.434113 270.060760,285.964630 274.352173,285.853119 
	C335.270325,284.270355 396.182800,282.469269 457.098053,280.772369 
	C458.978424,280.719971 461.519867,279.582245 462.622131,281.459198 
	C463.561523,283.058838 461.494965,284.722382 460.609344,286.237488 
	C444.573944,313.669800 428.482056,341.069092 412.219910,368.765930 
	C396.966003,370.449738 381.874207,370.230713 366.351562,369.374176 
z"/>
<path fill="#A4834E" opacity="1.000000" stroke="none" 
	d="
M217.835663,529.171814 
	C186.729095,477.574432 155.801254,426.294617 124.968697,375.172760 
	C125.907082,373.439484 127.218384,373.974884 128.266022,373.958771 
	C167.402817,373.357239 206.541473,372.860504 245.675568,372.121124 
	C249.985748,372.039673 250.865799,373.463104 250.989517,377.444000 
	C252.676086,431.713379 254.485016,485.979156 256.430603,540.239868 
	C256.567291,544.052185 255.678024,545.680237 251.781876,545.940796 
	C246.279831,546.308777 240.868576,547.600098 235.860092,549.857544 
	C232.068665,551.566406 230.339142,550.426941 228.515579,547.057983 
	C225.270752,541.063416 221.541168,535.331299 217.835663,529.171814 
z"/>
<path fill="#A4824E" opacity="1.000000" stroke="none" 
	d="
M133.987167,194.706299 
	C170.137238,194.158295 205.791626,193.703995 241.440125,192.964569 
	C245.955200,192.870911 246.956696,194.174927 246.981720,198.483917 
	C247.101730,219.143082 247.504913,239.801956 247.996490,260.456421 
	C248.084442,264.151367 247.439224,265.701569 243.204575,265.629456 
	C183.223221,264.607941 123.237244,264.864960 63.252766,265.384552 
	C60.068142,265.412170 57.993938,264.739716 56.457039,261.742523 
	C53.887756,256.731995 48.813873,251.982498 48.692341,247.027527 
	C48.570496,242.059708 53.110043,236.916412 55.797146,231.953217 
	C61.904953,220.671829 68.736870,209.828079 75.689766,199.049088 
	C77.581062,196.117035 79.700882,195.196838 83.004654,195.186554 
	C99.833328,195.134216 116.661400,194.889603 133.987167,194.706299 
z"/>
<path fill="#A4834E" opacity="1.000000" stroke="none" 
	d="
M163.035309,289.083740 
	C189.996445,288.348938 216.466293,287.717804 242.926437,286.805023 
	C247.197418,286.657715 248.668472,287.634796 248.738556,292.122009 
	C249.110413,315.930573 249.748886,339.735718 250.447861,363.537567 
	C250.544388,366.824646 249.607834,367.866119 246.282120,367.814545 
	C204.989807,367.174316 163.695801,366.641785 122.401512,366.139099 
	C120.350098,366.114105 119.061775,365.490234 117.982780,363.688568 
	C103.962128,340.277344 89.874611,316.906189 75.815399,293.518066 
	C75.659103,293.258057 75.654343,292.906982 75.369972,291.744720 
	C104.552513,290.857300 133.546646,289.975586 163.035309,289.083740 
z"/>
<path fill="#A4834E" opacity="1.000000" stroke="none" 
	d="
M221.669983,61.655220 
	C228.685913,57.770748 235.459122,54.195007 242.078705,50.354473 
	C245.879044,48.149597 246.748718,49.126793 246.644455,53.262363 
	C245.754150,88.574394 246.057983,123.893089 246.290665,159.210480 
	C246.324677,164.374420 246.200714,169.553131 246.557800,174.696671 
	C246.821762,178.498810 245.892441,179.903336 241.720917,179.845276 
	C198.411972,179.242554 155.100250,178.836945 111.789055,178.401001 
	C105.159454,178.334274 98.528603,178.391678 90.454521,178.391678 
	C127.091530,130.239716 170.381348,91.751717 221.669983,61.655220 
z"/>
<path fill="#A4834E" opacity="1.000000" stroke="none" 
	d="
M331.900269,617.357300 
	C332.027405,617.924377 332.053558,618.089600 332.097931,618.249756 
	C334.010681,625.150024 334.010925,625.156128 327.145752,625.156494 
	C288.519745,625.158569 249.893707,625.159424 211.267685,625.155457 
	C204.855637,625.154785 204.855606,625.142822 206.608414,618.789612 
	C214.055206,591.798157 238.145157,572.455322 265.991638,571.108337 
	C294.522156,569.728271 320.494110,586.680176 330.464935,613.195374 
	C330.933075,614.440247 331.361084,615.700134 331.900269,617.357300 
z"/>
<path fill="#A5844F" opacity="1.000000" stroke="none" 
	d="
M330.026306,551.969788 
	C349.755676,571.035889 360.587585,593.983215 363.258820,620.898865 
	C363.580536,624.140381 362.936920,625.423035 359.457855,625.226746 
	C354.808807,624.964600 350.117249,624.920471 345.475220,625.238770 
	C341.747894,625.494385 340.783936,624.241699 340.635559,620.542725 
	C339.759735,598.708679 331.244995,580.286438 315.171143,565.416992 
	C314.193634,564.512756 313.177032,563.648132 312.147156,562.803467 
	C304.482605,556.516541 304.480103,556.519592 310.342377,548.105286 
	C315.732605,540.368469 315.750793,540.345276 323.284607,546.242004 
	C325.511810,547.985229 327.604980,549.899597 330.026306,551.969788 
z"/>
<path fill="#DBCDB9" opacity="1.000000" stroke="none" 
	d="
M365.913879,369.389069 
	C380.986176,369.159180 396.046722,369.193817 411.572449,369.142456 
	C412.067841,369.331299 411.987579,369.568787 411.623779,369.854370 
	C398.713776,370.282776 385.977173,370.636261 373.239746,370.958557 
	C371.089447,371.012970 368.935822,370.933167 366.314850,370.811951 
	C365.864716,370.356903 365.883453,370.005249 365.913879,369.389069 
z"/>
<path fill="#A5844F" opacity="1.000000" stroke="none" 
	d="
M45.265560,265.436798 
	C43.252682,265.396851 40.803288,266.718445 40.099277,264.766968 
	C39.392891,262.808868 41.381908,260.947754 42.322071,258.525330 
	C44.119053,260.790009 45.896973,262.493103 45.265560,265.436798 
z"/>
<path fill="#DBCDB9" opacity="1.000000" stroke="none" 
	d="
M297.095551,531.441406 
	C294.850555,531.135437 292.589386,530.466492 289.855652,529.657715 
	C292.552460,528.186279 294.360931,529.932068 296.609802,530.207031 
	C296.949432,530.611572 297.014404,530.844971 297.095551,531.441406 
z"/>
<path fill="#A4834E" opacity="1.000000" stroke="none" 
	d="
M656.316895,409.832153 
	C662.680542,424.746277 663.092163,439.622559 657.964417,454.474518 
	C653.500244,467.404541 645.169678,472.910156 631.517212,473.067352 
	C624.330139,473.150146 617.229858,472.539368 610.242737,470.796112 
	C607.129333,470.019287 605.570068,468.369385 605.589172,464.836823 
	C605.713379,441.870148 605.648193,418.902496 605.663330,395.935150 
	C605.664734,393.780945 605.420471,391.371490 608.451904,390.922943 
	C621.522949,388.989075 634.371582,388.535095 645.797729,396.890289 
	C650.324280,400.200256 653.678467,404.486694 656.316895,409.832153 
z"/>
<path fill="#A5844F" opacity="1.000000" stroke="none" 
	d="
M515.672852,590.949524 
	C519.982361,583.267639 526.627869,581.081604 534.497925,581.754578 
	C542.218262,582.414795 547.397278,586.732727 550.346680,593.734192 
	C553.030762,600.105774 553.063843,606.756348 551.465210,613.351685 
	C549.691956,620.667419 545.008362,625.383850 537.498535,626.592651 
	C529.638062,627.857910 522.801392,625.414490 518.167175,618.849854 
	C512.133789,610.303162 511.671631,600.929871 515.672852,590.949524 
z"/>
<path fill="#A5844F" opacity="1.000000" stroke="none" 
	d="
M608.744751,602.768738 
	C610.311462,598.354553 611.740112,594.309326 613.168823,590.264160 
	C613.553467,590.175110 613.938110,590.086060 614.322754,589.997009 
	C616.510010,595.822815 618.697266,601.648621 621.109924,608.074829 
	C617.639526,608.074829 614.830383,607.830688 612.080566,608.130127 
	C607.569397,608.621338 606.374023,607.163635 608.744751,602.768738 
z"/>
<path fill="#A5844F" opacity="1.000000" stroke="none" 
	d="
M758.669678,603.456177 
	C760.658875,607.287476 759.498657,608.189148 755.771667,608.153992 
	C745.995605,608.061829 745.984314,608.214355 749.246277,599.014709 
	C750.281433,596.095398 751.384460,593.200073 752.714661,589.593567 
	C755.767578,594.135986 756.608643,598.855347 758.669678,603.456177 
z"/>
<path fill="#A5844F" opacity="1.000000" stroke="none" 
	d="
M512.269165,430.694794 
	C507.656006,425.078461 506.729370,418.997223 508.799377,412.610718 
	C511.684631,403.708801 521.432556,401.290985 528.402954,407.538055 
	C534.213928,412.746063 535.406067,424.113647 530.807800,430.469574 
	C526.565491,436.333466 519.296936,436.531860 512.269165,430.694794 
z"/>
<path fill="#DBCDB9" opacity="1.000000" stroke="none" 
	d="
M330.985077,659.442261 
	C331.104218,660.980042 330.532806,662.073853 329.370758,662.932434 
	C328.180237,661.458313 329.691010,660.516663 330.104462,659.172058 
	C330.432373,659.069702 330.596863,659.166626 330.985077,659.442261 
z"/>
</svg>